<?xml version="1.0" encoding="UTF-8"?>
<svg id="SVGDoc" width="15" height="15" xmlns="http://www.w3.org/2000/svg" version="1.1" xmlns:xlink="http://www.w3.org/1999/xlink" xmlns:avocode="https://avocode.com/" viewBox="0 0 15 15"><defs><clipPath id="ClipPath1017"><path d="M7.49989,-0.003c4.14207,0 7.5,3.35762 7.5,7.50085c0,4.14198 -3.35793,7.49919 -7.5,7.49919c-4.14219,0 -7.5,-3.35721 -7.5,-7.49919c0,-4.14323 3.35781,-7.50085 7.5,-7.50085z" fill="#ffffff"></path></clipPath></defs><desc>Generated with Avocode.</desc><g><g><title>02</title><path d="M7.49989,-0.003c4.14207,0 7.5,3.35762 7.5,7.50085c0,4.14198 -3.35793,7.49919 -7.5,7.49919c-4.14219,0 -7.5,-3.35721 -7.5,-7.49919c0,-4.14323 3.35781,-7.50085 7.5,-7.50085z" fill="#ffffff" fill-opacity="1"></path><path d="M7.49989,-0.003c4.14207,0 7.5,3.35762 7.5,7.50085c0,4.14198 -3.35793,7.49919 -7.5,7.49919c-4.14219,0 -7.5,-3.35721 -7.5,-7.49919c0,-4.14323 3.35781,-7.50085 7.5,-7.50085z" fill-opacity="0" fill="#ffffff" stroke-linejoin="round" stroke-linecap="round" stroke-opacity="1" stroke="#d3c1ad" stroke-miterlimit="50" stroke-width="4" clip-path="url(&quot;#ClipPath1017&quot;)"></path></g></g></svg>